<svg viewBox="0 0 1024 1024" class="icon" version="1.1" xmlns="http://www.w3.org/2000/svg" fill="#000000"><g id="SVGRepo_bgCarrier" stroke-width="0"></g><g id="SVGRepo_tracerCarrier" stroke-linecap="round" stroke-linejoin="round"></g><g id="SVGRepo_iconCarrier"><path d="M490.666667 256h42.666666v554.666667h-42.666666z" fill="#B0BEC5"></path><path d="M704 768h-42.666667l-42.666666-64c-29.866667-42.666667-81.066667-49.066667-106.666667-49.066667-68.266667 0-100.266667 49.066667-100.266667 49.066667l-42.666666 64H320l49.066667-91.733333 14.933333-70.4c10.666667-42.666667 32-72.533333 72.533333-72.533334H618.666667l10.666666 57.6 32 87.466667 42.666667 89.6z" fill="#FF9800"></path><path d="M512 128s-256 87.466667-256 170.666667c0 23.466667 38.4 42.666667 85.333333 42.666666s85.333333-19.2 85.333334-42.666666c0-68.266667 38.4-78.933333 85.333333-78.933334s85.333333 102.4 85.333333 78.933334c0 23.466667 38.4 42.666667 85.333334 42.666666s85.333333-19.2 85.333333-42.666666c0-89.6-256-170.666667-256-170.666667zM597.333333 810.666667h170.666667v85.333333h-170.666667zM256 810.666667h170.666667v85.333333h-170.666667z" fill="#FFC107"></path><path d="M514.133333 546.133333c85.333333 0 38.4-140.8 183.466667-140.8l-10.666667 23.466667L746.666667 512l-32 21.333333-38.4-27.733333c-23.466667 12.8-38.4-2.133333-38.4-2.133333v121.6c2.133333 2.133333-153.6-78.933333-123.733334-78.933334z" fill="#FF9800"></path><path d="M533.333333 533.333333c14.933333-36.266667 38.4-128 164.266667-128l-10.666667 23.466667s-96 0-96 104.533333c0 0-25.6 32-57.6 0zM396.8 571.733333c4.266667-8.533333 10.666667-14.933333 17.066667-21.333333-21.333333-21.333333-44.8-38.4-70.4-38.4-27.733333 0-68.266667 17.066667-83.2 68.266667l51.2 27.733333c25.6-70.4 64-51.2 85.333333-36.266667z" fill="#EF6C00"></path><path d="M512 128s256 106.666667 256 170.666667c0 23.466667 27.733333 42.666667 64 42.666666s64-19.2 64-42.666666v-32c0-19.2-12.8-36.266667-32-40.533334L512 128zM512 128s-256 106.666667-256 170.666667c0 23.466667-27.733333 42.666667-64 42.666666s-64-19.2-64-42.666666v-32c0-19.2 12.8-36.266667 32-40.533334L512 128zM512 128s-85.333333 85.333333-85.333333 170.666667c0 23.466667 38.4 42.666667 85.333333 42.666666s85.333333-19.2 85.333333-42.666666c0-85.333333-85.333333-170.666667-85.333333-170.666667z" fill="#FF5722"></path><path d="M170.666667 810.666667c-23.466667 0-42.666667 19.2-42.666667 42.666666v42.666667h128v-85.333333H170.666667zM426.666667 810.666667h170.666666v85.333333h-170.666666zM853.333333 810.666667h-85.333333v85.333333h128v-42.666667c0-23.466667-19.2-42.666667-42.666667-42.666666z" fill="#FF5722"></path></g></svg>