<svg version="1.1" id="Uploaded to svgrepo.com" xmlns="http://www.w3.org/2000/svg" xmlns:xlink="http://www.w3.org/1999/xlink" viewBox="0 0 32 32" xml:space="preserve" fill="#000000"><g id="SVGRepo_bgCarrier" stroke-width="0"></g><g id="SVGRepo_tracerCarrier" stroke-linecap="round" stroke-linejoin="round"></g><g id="SVGRepo_iconCarrier"> <style type="text/css"> .cubies_zeventien{fill:#EC9B5A;} .cubies_achtien{fill:#EDB57E;} .cubies_eenentwintig{fill:#C9483A;} .cubies_tweeentwintig{fill:#D97360;} .st0{fill:#F9E0BD;} .st1{fill:#F2C99E;} .st2{fill:#98D3BC;} .st3{fill:#CCE2CD;} .st4{fill:#65C3AB;} .st5{fill:#4C4842;} .st6{fill:#67625D;} .st7{fill:#EDEAE5;} .st8{fill:#C9C6C0;} .st9{fill:#E69D8A;} .st10{fill:#2EB39A;} .st11{fill:#FFF2DF;} .st12{fill:#BCD269;} .st13{fill:#D1DE8B;} .st14{fill:#837F79;} .st15{fill:#A5A29C;} .st16{fill:#8E7866;} .st17{fill:#725A48;} .st18{fill:#F2C7B5;} .st19{fill:#A4C83F;} .st20{fill:#E3D4C0;} </style> <g> <path class="cubies_zeventien" d="M29,32H3c-1.657,0-3-1.343-3-3V17h32v12C32,30.657,30.657,32,29,32z"></path> <path class="cubies_eenentwintig" d="M29,2h-3V1c0-0.552-0.448-1-1-1h-6c-0.552,0-1,0.448-1,1v1h-4V1c0-0.552-0.448-1-1-1H7 C6.448,0,6,0.448,6,1v1H3C1.343,2,0,3.343,0,5v12h32V5C32,3.343,30.657,2,29,2z"></path> <path class="cubies_achtien" d="M27,32H3c-1.657,0-3-1.343-3-3V17h30v12C30,30.657,28.657,32,27,32z"></path> <path class="cubies_tweeentwintig" d="M27,2h-3V1c0-0.552-0.448-1-1-1h-4c-0.552,0-1,0.448-1,1v1h-6V1c0-0.552-0.448-1-1-1H7 C6.448,0,6,0.448,6,1v1H3C1.343,2,0,3.343,0,5v12h30V5C30,3.343,28.657,2,27,2z"></path> </g> </g></svg>