<svg version="1.1" id="Layer_1" xmlns="http://www.w3.org/2000/svg" xmlns:xlink="http://www.w3.org/1999/xlink" viewBox="0 0 392.678 392.678" xml:space="preserve" fill="#000000"><g id="SVGRepo_bgCarrier" stroke-width="0"></g><g id="SVGRepo_tracerCarrier" stroke-linecap="round" stroke-linejoin="round"></g><g id="SVGRepo_iconCarrier"> <rect x="115.89" y="172.129" style="fill:#56ACE0;" width="160.776" height="32.711"></rect> <path style="fill:#FFC10D;" d="M196.311,310.149c31.806,0,57.665-25.859,57.665-57.665v-25.859H138.581v25.859 C138.581,284.226,164.505,310.149,196.311,310.149z"></path> <g> <circle style="fill:#194F82;" cx="196.311" cy="268.388" r="13.964"></circle> <path style="fill:#194F82;" d="M190.428,6.182C88.674,7.669,5.216,91.063,0.238,192.687 c-2.521,51.846,15.063,101.689,49.519,140.348c4.008,4.461,10.925,4.848,15.386,0.84c4.461-4.008,4.848-10.925,0.84-15.386 c-30.578-34.327-46.222-78.675-43.96-124.768c4.461-90.311,78.61-165.43,169.115-165.754 c132.396-0.388,180.816,112.356,179.653,174.416c-1.293,68.008-39.952,130.327-101.818,158.642 c-13.576,6.271-28.768,5.172-41.438-3.038c-9.826-6.335-16.549-16.097-19.071-27.152c38.077-5.818,67.362-38.659,67.362-78.351 v-25.859h11.83c6.012,0,10.925-4.848,10.925-10.925v-54.497c0-6.012-4.849-10.925-10.925-10.925h-32.388V83.758 c0-6.012-4.848-10.925-10.925-10.925c-6.012,0-10.925,4.848-10.925,10.925v66.521h-74.214V83.758 c0-6.012-4.848-10.925-10.925-10.925s-10.925,4.848-10.925,10.925v66.521h-32.388c-6.012,0-10.925,4.848-10.925,10.925v54.497 c0,6.012,4.848,10.925,10.925,10.925h11.83v25.859c0,40.404,30.384,73.826,69.495,78.739c2.844,18.489,13.317,34.974,29.414,45.188 c26.828,16.873,53.657,8.404,62.255,4.461c69.754-31.871,112.937-101.948,114.683-178.489 C394.517,116.404,323.147,4.372,190.428,6.182z M115.89,172.129h160.776v32.646H115.89V172.129z M138.581,226.562h115.394v25.859 c0,31.806-25.859,57.665-57.665,57.665s-57.665-25.859-57.665-57.665v-25.859H138.581z"></path> </g> </g></svg>